<svg xmlns="http://www.w3.org/2000/svg" viewBox="0 0 450 365.98"><defs><style>.cls-1,.cls-3{fill:#dba334;}.cls-1{opacity:0.43;}.cls-2{fill:#2c3240;}</style></defs><g id="Layer_2" data-name="Layer 2"><g id="Layer_1-2" data-name="Layer 1"><path class="cls-1" d="M450,36.82V354.16a170.65,170.65,0,0,1-193.29-49.33c-1.15-1.36-2.26-2.73-3.35-4.13a169.62,169.62,0,0,1-33.72-75.27,172,172,0,0,1,1.81-68.7,167.83,167.83,0,0,1,9-27.64q1-2.46,2.14-4.86A170.68,170.68,0,0,1,450,36.82Z"/><path class="cls-2" d="M258.82,116.69q0,6.75-.52,13.36c-.13,1.73-.29,3.46-.48,5.18a169.66,169.66,0,0,1-38.18,90.2,170.92,170.92,0,0,1-63,47.5q-2.38,1.05-4.81,2A170.84,170.84,0,0,1,0,262.54V0H212.62A170,170,0,0,1,256.2,86.75,171.76,171.76,0,0,1,258.82,116.69Z"/><path class="cls-3" d="M450,0V85.12a170.48,170.48,0,0,1-141.66,90.22c-1.84.1-3.68.16-5.54.19-1.12,0-2.24,0-3.37,0a170.5,170.5,0,0,1-48.64-7,168.59,168.59,0,0,1-29.34-11.8A170,170,0,0,1,190.26,136c-1.42-1.17-2.82-2.38-4.2-3.61A170.08,170.08,0,0,1,128.94,5.08c0-1.7,0-3.39.08-5.08Z"/></g></g></svg>